PathFileType	4	(X/Y/Z)	TVC_60_BWA02_walk_RCNL2025.trc
DataRate	CameraRate	NumFrames	NumMarkers	Units	OrigDataRate	OrigDataStartFrame	OrigNumFrames
100	100	6	27	mm	100	70	276
Frame#	Time	R_Shoulder			L_Shoulder			C7			J_Notch			R_Elbow			L_Elbow			R_Wrist			L_Wrist			R_Asis			L_Asis			R_Psis			L_Psis			Sacral			Thoracic			Sternum			R_Thigh_Lateral			R_Knee_Lateral			R_Shank_Lateral			R_Ankle_Lateral			R_Heel			R_Toe			L_Thigh_Lateral			L_Knee_Lateral			L_Shank_Lateral			L_Ankle_Lateral			L_Heel			L_Toe		
		X1	Y1	Z1	X2	Y2	Z2	X3	Y3	Z3	X4	Y4	Z4	X5	Y5	Z5	X6	Y6	Z6	X7	Y7	Z7	X8	Y8	Z8	X9	Y9	Z9	X10	Y10	Z10	X11	Y11	Z11	X12	Y12	Z12	X13	Y13	Z13	X14	Y14	Z14	X15	Y15	Z15	X16	Y16	Z16	X17	Y17	Z17	X18	Y18	Z18	X19	Y19	Z19	X20	Y20	Z20	X21	Y21	Z21	X22	Y22	Z22	X23	Y23	Z23	X24	Y24	Z24	X25	Y25	Z25	X26	Y26	Z26	X27	Y27	Z27
70	0.69000000	-308.608185	1317.419678	-117.062752	-361.755676	1333.379150	-464.276642	-394.295654	1389.351685	-285.689728	-280.717926	1263.183105	-300.792603	-352.224304	990.654175	-18.720732	-430.836273	991.078430	-505.875336	-260.693741	770.473297	-6.949698	-353.073273	772.738190	-552.002563	-282.103943	898.205017	-143.599960	-301.345917	909.793274	-425.459167	-462.283356	890.761414	-209.205688	-470.593353	894.250916	-319.334930	-466.438354	892.506165	-264.270309	-447.224792	1178.741089	-274.936127	-244.951279	1073.562378	-287.532013	-312.236694	581.140442	-55.870087	-308.142548	419.299225	-115.859169	-482.663086	296.046967	-83.311203	-638.921387	216.889145	-153.155563	-662.022888	247.998993	-205.495621	-600.170654	91.310135	-156.473251	-301.992218	623.893311	-481.297516	-229.816925	444.816101	-402.207764	-253.610886	251.326965	-423.701355	-270.455109	57.809788	-340.544464	-315.689270	59.911091	-297.251617	-143.476028	43.042953	-330.357300
71	0.70000000	-300.462891	1318.343994	-118.061531	-352.690247	1334.376221	-465.397186	-385.678497	1390.401001	-286.967163	-272.326294	1263.927734	-301.708435	-346.727814	991.742615	-20.466618	-420.400879	991.899231	-508.253448	-257.789726	770.453949	-8.072330	-340.710175	774.252228	-554.311523	-274.877899	898.957153	-144.751678	-294.014130	910.678955	-426.761566	-454.928711	891.499084	-210.477600	-463.261749	895.429382	-320.538025	-459.095230	893.464233	-265.507812	-439.043335	1179.943604	-276.327698	-237.232025	1074.111938	-288.349365	-300.068542	582.393372	-57.419323	-289.578613	420.677704	-117.295563	-463.681458	297.334076	-85.192375	-619.968506	218.783310	-155.262955	-643.828186	248.580399	-208.044891	-577.558960	95.233147	-155.714996	-295.709503	624.647705	-482.470612	-226.844757	444.449371	-402.562744	-251.999908	251.044449	-423.971222	-270.384888	57.748219	-340.484253	-315.674561	59.961288	-297.246735	-143.454926	42.965340	-330.329803
72	0.71000000	-292.500610	1319.197021	-118.972427	-343.639191	1335.333618	-466.454926	-377.134491	1391.406494	-288.194031	-264.028870	1264.607910	-302.529541	-341.345306	992.791199	-22.136497	-409.924530	992.702209	-510.651337	-254.948044	770.464600	-9.113117	-328.312103	775.758148	-556.600159	-267.764862	899.718201	-145.822754	-286.806458	911.446167	-427.996948	-447.711121	892.236816	-211.701645	-456.060455	896.561157	-321.690369	-451.885788	894.398987	-266.696007	-430.962158	1181.098022	-277.719116	-229.645889	1074.584717	-289.083771	-288.251495	583.807495	-58.949810	-271.234924	422.347412	-118.853638	-444.633820	298.555756	-87.089714	-600.473022	219.587357	-157.263718	-625.262207	247.991730	-210.404816	-553.733765	98.415741	-155.161636	-289.043427	625.478516	-483.652130	-223.899261	444.101227	-402.888855	-250.416824	250.790161	-424.225433	-270.297150	57.703274	-340.428619	-315.644989	60.033886	-297.244568	-143.425217	42.900436	-330.299561
73	0.72000000	-284.709869	1319.978882	-119.802452	-334.613373	1336.246948	-467.451965	-368.664062	1392.362061	-289.370850	-255.823456	1265.223145	-303.263428	-336.071442	993.797729	-23.728325	-399.410248	993.482056	-513.062195	-252.161041	770.502502	-10.066952	-315.888504	777.248657	-558.863617	-260.745514	900.483765	-146.823257	-279.710205	912.107056	-429.169922	-440.611115	892.972168	-212.871506	-448.973267	897.644165	-322.788727	-444.792191	895.308167	-267.830116	-422.976715	1182.197510	-279.104553	-222.178925	1074.987793	-289.746033	-276.724548	585.333923	-60.439362	-253.149033	424.290283	-120.523994	-425.485199	299.621552	-88.965950	-580.436951	219.254013	-159.107880	-606.274658	246.246918	-212.510696	-528.926453	100.749352	-154.874786	-282.281921	626.292297	-484.776428	-220.992355	443.769287	-403.190308	-248.874619	250.564468	-424.459839	-270.195038	57.675713	-340.375519	-315.603516	60.127563	-297.241425	-143.388947	42.849434	-330.266693
74	0.73000000	-277.077148	1320.690308	-120.559074	-325.623352	1337.111694	-468.390747	-360.266815	1393.262085	-290.498260	-247.706985	1265.773193	-303.918365	-330.900146	994.760803	-25.240685	-388.862061	994.233643	-515.478821	-249.421738	770.564819	-10.929453	-303.448746	778.717133	-561.097717	-253.803009	901.248108	-147.763092	-272.711395	912.674622	-430.284912	-433.610046	893.701111	-213.982651	-441.983978	898.676331	-323.831146	-437.797012	896.188721	-268.906898	-415.081757	1183.236084	-280.477692	-214.816910	1075.327881	-290.347046	-265.415283	586.908020	-61.871555	-235.353973	426.480286	-122.295471	-406.190277	300.417084	-90.796013	-559.852295	217.760056	-160.763489	-586.819885	243.372330	-214.318909	-503.326050	102.170975	-154.896851	-275.681244	627.008484	-485.787354	-218.138641	443.449921	-403.468323	-247.384979	250.365372	-424.670013	-270.082520	57.664700	-340.322784	-315.552979	60.239365	-297.233429	-143.348450	42.811169	-330.231354
75	0.74000000	-269.587311	1321.332520	-121.249931	-316.679138	1337.923706	-469.273895	-351.941711	1394.101440	-291.577057	-239.675598	1266.258057	-304.502960	-325.824615	995.679688	-26.672756	-378.284912	994.952209	-517.893494	-246.723663	770.648163	-11.697006	-291.002121	780.157562	-563.298767	-246.922928	902.004272	-148.651505	-265.795471	913.161621	-431.345825	-426.690521	894.418274	-215.032135	-435.076813	899.655396	-324.816864	-430.883667	897.036835	-269.924500	-407.271606	1184.208496	-281.831970	-207.545685	1075.610962	-290.897430	-254.242905	588.451294	-63.236454	-217.879532	428.884949	-124.155121	-386.701019	300.824341	-92.565941	-538.703796	215.108597	-162.216476	-566.858521	239.404953	-215.808670	-477.074219	102.661957	-155.246765	-269.422089	627.569397	-486.644745	-215.351761	443.138336	-403.722656	-245.956573	250.188950	-424.852173	-269.964111	57.668106	-340.268616	-315.495575	60.365551	-297.216553	-143.306259	42.783073	-330.194183
